<svg xmlns="http://www.w3.org/2000/svg" viewBox="0 0 1254 1254" role="img" aria-label="Real logo">
<path d="M0 0 C2.055 1.215 2.055 1.215 3.875 2.938 C4.552 3.574 5.229 4.211 5.926 4.867 C8.752 7.774 11.411 10.809 14.062 13.875 C15.806 15.787 17.567 17.423 19.562 19.062 C22.765 21.695 25.36 24.617 28.023 27.785 C31.146 31.284 34.613 34.427 38.059 37.605 C40 40 40 40 40.369 42.367 C39.876 45.887 38.559 47.046 36.04 49.527 C35.176 50.392 34.311 51.256 33.42 52.147 C32.464 53.077 31.507 54.007 30.551 54.938 C29.575 55.904 28.601 56.871 27.627 57.84 C25.061 60.387 22.479 62.919 19.895 65.449 C17.281 68.011 14.681 70.588 12.08 73.164 C7.488 77.708 2.885 82.239 -1.728 86.762 C-3.374 88.383 -5.007 90.017 -6.632 91.658 C-8.97 93.97 -11.434 95.948 -14 98 C-16.476 100.355 -18.739 102.658 -20.812 105.375 C-22.601 107.522 -24.196 109.072 -26.312 110.844 C-31.927 115.71 -37.11 120.999 -42.343 126.268 C-44.225 128.163 -46.11 130.055 -47.997 131.946 C-52.001 135.961 -56.001 139.98 -60 144 C-64.639 148.663 -69.281 153.325 -73.926 157.982 C-75.771 159.834 -77.614 161.688 -79.456 163.543 C-88.737 172.865 -88.737 172.865 -92.952 176.455 C-99.302 181.87 -105.065 187.943 -110.949 193.852 C-112.293 195.197 -113.637 196.543 -114.982 197.889 C-118.502 201.412 -122.019 204.939 -125.535 208.466 C-129.111 212.052 -132.689 215.635 -136.268 219.219 C-142.046 225.005 -147.822 230.794 -153.596 236.585 C-154.598 237.59 -155.602 238.595 -156.605 239.6 C-157.937 240.937 -159.263 242.279 -160.589 243.621 C-162.869 245.87 -165.209 248 -167.613 250.115 C-172.827 254.782 -177.784 259.68 -182.7 264.656 C-184.228 266.201 -185.759 267.742 -187.292 269.283 C-191.639 273.655 -195.98 278.032 -200.318 282.414 C-202.99 285.113 -205.667 287.807 -208.347 290.498 C-209.363 291.52 -210.378 292.545 -211.39 293.571 C-212.795 294.995 -214.206 296.412 -215.617 297.828 C-216.418 298.636 -217.218 299.444 -218.042 300.276 C-220 302 -220 302 -222 302 C-222.211 302.545 -222.423 303.091 -222.641 303.652 C-224.491 306.849 -227.038 309.112 -229.75 311.562 C-230.263 312.044 -230.776 312.525 -231.305 313.021 C-237.488 318.668 -242.71 320.599 -251.102 320.34 C-257.161 319.629 -260.335 316.929 -264.18 312.359 C-268.66 307.161 -273.556 302.424 -278.479 297.648 C-279.162 296.976 -279.846 296.303 -280.551 295.609 C-281.166 295.011 -281.781 294.412 -282.415 293.796 C-286.562 289.097 -286.617 284.387 -286.488 278.309 C-285.337 270.505 -279.133 266.068 -273.542 261.03 C-267.444 255.485 -261.596 249.714 -255.79 243.865 C-254.025 242.087 -252.257 240.313 -250.488 238.539 C-246.739 234.779 -242.994 231.015 -239.25 227.25 C-234.89 222.866 -230.528 218.484 -226.162 214.106 C-224.434 212.371 -222.709 210.634 -220.984 208.897 C-212.311 200.183 -212.311 200.183 -208.022 196.522 C-202.743 192.012 -197.917 187.027 -193.028 182.103 C-191.213 180.275 -189.394 178.45 -187.575 176.626 C-183.714 172.754 -179.857 168.877 -176 165 C-171.526 160.502 -167.05 156.006 -162.57 151.514 C-160.791 149.728 -159.015 147.94 -157.239 146.152 C-152.223 141.112 -147.184 136.166 -141.771 131.548 C-138.677 128.843 -135.822 125.905 -132.945 122.973 C-131.659 121.674 -130.373 120.375 -129.086 119.076 C-127.089 117.054 -125.094 115.031 -123.102 113.006 C-121.158 111.032 -119.208 109.064 -117.258 107.098 C-116.659 106.485 -116.06 105.873 -115.443 105.242 C-113.999 103.79 -112.504 102.389 -111 101 C-110.34 101 -109.68 101 -109 101 C-108.67 100.01 -108.34 99.02 -108 98 C-106.557 96.58 -106.557 96.58 -104.656 95.031 C-101.1 92.014 -97.751 88.841 -94.469 85.531 C-93.984 85.043 -93.5 84.556 -93 84.053 C-91.498 82.537 -89.999 81.019 -88.5 79.5 C-82.726 73.648 -76.977 67.843 -70.721 62.498 C-68.179 60.286 -65.854 57.911 -63.5 55.5 C-60.49 52.445 -57.464 49.459 -54.188 46.688 C-49.624 42.801 -45.464 38.517 -41.274 34.237 C-38.365 31.284 -35.416 28.464 -32.258 25.777 C-28.864 22.852 -25.722 19.729 -22.617 16.504 C-22.383 16.263 -22.383 16.263 -21.2 15.042 C-19.262 13.041 -17.326 11.039 -15.413 9.015 C-13.995 7.518 -12.558 6.041 -11.117 4.566 C-10.278 3.689 -9.439 2.812 -8.574 1.908 C-5.44 -0.415 -3.817 -0.491 0 0 Z " fill="#057BE6" transform="translate(700,539)"/>
<path d="M0 0 C3.932 0.017 7.863 0.008 11.795 0.002 C18.382 -0.002 24.968 0.014 31.555 0.042 C39.149 0.074 46.742 0.074 54.336 0.057 C61.684 0.041 69.032 0.047 76.38 0.064 C79.491 0.071 82.601 0.07 85.711 0.063 C89.371 0.055 93.031 0.068 96.691 0.095 C98.661 0.105 100.631 0.096 102.601 0.085 C110.474 0.17 117.326 0.891 123.435 6.254 C128.343 11.28 130.163 17.238 131.033 24.076 C130.125 31.467 127.537 37.941 121.595 42.639 C116.064 46.301 111.698 47.764 105.108 47.763 C103.992 47.766 102.877 47.768 101.727 47.771 C100.507 47.769 99.288 47.767 98.031 47.765 C96.053 47.768 94.076 47.77 92.098 47.774 C89.973 47.776 87.848 47.777 85.723 47.777 C81.284 47.778 76.844 47.791 72.405 47.806 C71.654 47.809 70.904 47.812 70.131 47.814 C68.596 47.819 67.062 47.825 65.527 47.83 C55.195 47.865 44.864 47.892 34.532 47.889 C27.559 47.888 20.586 47.904 13.612 47.94 C9.927 47.958 6.243 47.968 2.558 47.955 C-1.563 47.942 -5.684 47.967 -9.805 47.995 C-11.009 47.985 -12.212 47.975 -13.452 47.964 C-26.035 48.117 -36.387 52.707 -45.307 61.518 C-54.728 71.696 -56.704 82.286 -56.692 95.819 C-56.695 96.418 -56.695 96.418 -56.712 99.453 C-56.729 102.722 -56.738 105.99 -56.743 109.259 C-56.752 112.691 -56.773 116.123 -56.793 119.555 C-56.846 129.011 -56.879 138.467 -56.912 147.923 C-56.943 156.597 -56.978 165.271 -57.029 173.945 C-57.048 177.357 -57.063 180.768 -57.069 184.179 C-57.076 187.982 -57.096 191.785 -57.117 195.588 C-57.116 196.71 -57.115 197.832 -57.114 198.987 C-57.186 207.944 -58.37 216.382 -64.823 223.119 C-71.114 228.634 -76.828 229.145 -84.951 229.018 C-91.271 228.324 -95.073 225.32 -99.217 220.701 C-104.495 213.312 -104.842 207.825 -104.809 198.927 C-104.815 197.646 -104.822 196.365 -104.829 195.046 C-104.847 191.541 -104.846 188.037 -104.84 184.532 C-104.837 181.593 -104.843 178.654 -104.85 175.715 C-104.864 168.766 -104.862 161.818 -104.851 154.869 C-104.839 147.741 -104.853 140.614 -104.88 133.486 C-104.902 127.339 -104.909 121.192 -104.903 115.045 C-104.9 111.386 -104.902 107.728 -104.919 104.069 C-105.007 83.596 -104.198 66.091 -94.405 47.639 C-93.892 46.633 -93.378 45.628 -92.85 44.592 C-84.782 29.692 -72.08 18.045 -57.342 9.889 C-56.725 9.536 -56.108 9.183 -55.472 8.82 C-37.922 -0.411 -19.276 -0.103 0 0 Z " fill="#057BE6" transform="translate(321.4045670032501,228.3613040447235)"/>
<path d="M0 0 C6.292 5.21 9.469 11.677 10.278 19.792 C10.386 22.982 10.402 26.161 10.385 29.354 C10.39 30.56 10.396 31.766 10.401 33.008 C10.413 36.291 10.413 39.574 10.407 42.857 C10.406 46.308 10.423 49.759 10.439 53.211 C10.48 62.718 10.491 72.224 10.503 81.731 C10.513 90.451 10.53 99.171 10.571 107.89 C10.586 111.318 10.595 114.746 10.589 118.174 C10.585 121.998 10.598 125.822 10.615 129.646 C10.609 130.769 10.603 131.891 10.597 133.048 C10.692 145.282 14.687 156.055 23.016 165.113 C34.319 175.86 46.496 177.149 61.418 177.142 C62.654 177.145 63.891 177.149 65.165 177.152 C67.844 177.16 70.522 177.165 73.201 177.169 C77.442 177.175 81.683 177.191 85.924 177.21 C87.38 177.216 88.836 177.223 90.291 177.229 C90.656 177.231 90.656 177.231 92.499 177.239 C102.364 177.281 112.229 177.314 122.094 177.326 C128.761 177.334 135.428 177.357 142.096 177.395 C145.618 177.415 149.14 177.427 152.663 177.422 C156.593 177.417 160.523 177.442 164.453 177.47 C165.61 177.463 166.767 177.457 167.959 177.45 C175.797 177.541 181.071 178.742 187.242 183.859 C192.887 190.396 194.247 195.355 194.062 203.938 C193.348 210.371 191.013 214.874 186 219 C178.396 223.902 171.914 224.712 163.001 224.599 C161.738 224.603 160.475 224.607 159.173 224.611 C155.735 224.621 152.297 224.6 148.858 224.573 C145.236 224.549 141.613 224.552 137.99 224.552 C131.903 224.547 125.816 224.523 119.728 224.487 C112.731 224.445 105.734 224.428 98.737 224.424 C91.239 224.421 83.74 224.402 76.242 224.377 C74.105 224.371 71.969 224.367 69.832 224.364 C37.584 224.303 11.149 221.447 -13 198 C-29.5 180.498 -37.479 158.239 -37.42 134.382 C-37.428 133.089 -37.437 131.796 -37.446 130.464 C-37.468 126.96 -37.471 123.457 -37.469 119.953 C-37.469 117.013 -37.477 114.073 -37.486 111.133 C-37.505 104.195 -37.508 97.256 -37.501 90.318 C-37.494 83.186 -37.517 76.054 -37.554 68.922 C-37.585 62.769 -37.596 56.616 -37.592 50.463 C-37.59 46.8 -37.596 43.138 -37.62 39.476 C-37.647 35.394 -37.633 31.312 -37.615 27.23 C-37.628 26.033 -37.642 24.836 -37.655 23.604 C-37.572 15.23 -35.94 8.464 -30.29 2.062 C-21.873 -6.144 -9.758 -5.561 0 0 Z " fill="#057BE6" transform="translate(254,779)"/>
<path d="M0 0 C1.304 -0.007 2.607 -0.014 3.95 -0.021 C7.509 -0.039 11.067 -0.032 14.625 -0.02 C18.368 -0.01 22.111 -0.019 25.855 -0.025 C32.147 -0.033 38.439 -0.023 44.73 -0.004 C51.968 0.018 59.206 0.011 66.444 -0.011 C72.686 -0.029 78.929 -0.032 85.171 -0.021 C88.887 -0.015 92.602 -0.014 96.317 -0.028 C125.815 -0.119 125.815 -0.119 137.845 4.518 C138.382 4.712 138.382 4.712 141.097 5.693 C162.884 13.839 179.742 30.129 189.72 50.955 C196.459 65.81 197.983 80.802 198.022 96.975 C198.029 98.168 198.036 99.361 198.042 100.591 C198.062 104.504 198.074 108.417 198.084 112.33 C198.088 113.688 198.092 115.046 198.096 116.403 C198.115 122.78 198.129 129.157 198.138 135.534 C198.147 142.856 198.174 150.179 198.214 157.501 C198.244 163.191 198.259 168.88 198.262 174.57 C198.265 177.956 198.274 181.341 198.299 184.726 C198.323 188.505 198.322 192.282 198.315 196.061 C198.322 196.612 198.322 196.612 198.354 199.402 C198.301 207.367 197.329 215.581 191.861 221.76 C185.599 227.596 180.235 228.933 171.783 228.768 C165.178 228.205 160.525 225.197 155.845 220.518 C152.378 214.975 150.726 209.898 150.707 203.358 C150.702 202.316 150.697 201.273 150.691 200.198 C150.69 199.06 150.689 197.921 150.688 196.748 C150.683 195.544 150.678 194.34 150.672 193.1 C150.662 190.484 150.653 187.867 150.646 185.251 C150.636 181.106 150.615 176.961 150.593 172.816 C150.531 161.03 150.477 149.244 150.444 137.458 C150.426 130.947 150.397 124.436 150.356 117.925 C150.335 114.484 150.32 111.043 150.317 107.602 C150.312 103.756 150.289 99.91 150.262 96.064 C150.265 94.937 150.268 93.811 150.271 92.65 C150.134 79.589 146.083 68.959 137.22 59.268 C126.236 48.912 112.877 47.213 98.438 47.246 C97.239 47.241 96.039 47.236 94.803 47.23 C91.543 47.218 88.283 47.213 85.023 47.212 C81.596 47.207 78.17 47.189 74.743 47.172 C64.57 47.123 54.398 47.092 44.225 47.071 C36.302 47.054 28.38 47.031 20.457 46.988 C17.053 46.969 13.649 46.957 10.244 46.959 C6.451 46.959 2.658 46.94 -1.136 46.918 C-2.254 46.923 -3.373 46.927 -4.525 46.932 C-12.172 46.861 -18.226 45.99 -23.905 40.393 C-28.416 35.587 -29.839 30.46 -30.53 24.018 C-29.707 16.343 -27.316 9.493 -21.155 4.518 C-14.104 0.102 -8.2 -0.054 0 0 Z " fill="#057BE6" transform="translate(848.154541015625,228.482421875)"/>
<path d="M0 0 C5.967 5.461 9.59 10.423 10.192 18.618 C10.281 21.812 10.305 25 10.306 28.196 C10.315 29.41 10.323 30.624 10.332 31.875 C10.352 35.194 10.362 38.513 10.367 41.832 C10.371 43.917 10.377 46.002 10.384 48.087 C10.409 55.394 10.422 62.7 10.426 70.007 C10.429 76.76 10.459 83.513 10.501 90.266 C10.536 96.104 10.551 101.941 10.552 107.779 C10.553 111.247 10.561 114.715 10.59 118.183 C10.789 146.562 7.401 174.57 -13 196 C-13.623 196.7 -14.245 197.4 -14.887 198.121 C-22.932 206.773 -32.572 212.702 -43.312 217.375 C-44.033 217.697 -44.754 218.018 -45.497 218.35 C-61.904 225.113 -79.328 224.479 -96.746 224.469 C-99.611 224.469 -102.477 224.477 -105.342 224.486 C-112.104 224.505 -118.865 224.508 -125.627 224.501 C-132.573 224.494 -139.519 224.517 -146.465 224.554 C-152.466 224.585 -158.466 224.596 -164.467 224.592 C-168.035 224.59 -171.603 224.596 -175.171 224.62 C-179.145 224.647 -183.119 224.633 -187.093 224.615 C-188.257 224.628 -189.421 224.642 -190.62 224.655 C-198.051 224.579 -203.841 223.323 -210 219 C-215.09 213.731 -217.642 208.579 -218.375 201.25 C-218.165 195.14 -216.189 189.482 -212.129 184.879 C-207.048 180.259 -202.641 177.754 -195.645 177.742 C-194.584 177.735 -193.523 177.728 -192.429 177.721 C-191.276 177.724 -190.122 177.726 -188.933 177.729 C-187.709 177.724 -186.486 177.718 -185.226 177.713 C-182.569 177.703 -179.913 177.696 -177.257 177.695 C-173.049 177.693 -168.841 177.675 -164.633 177.654 C-154.178 177.605 -143.723 177.574 -133.268 177.553 C-125.147 177.536 -117.026 177.513 -108.905 177.47 C-104.73 177.448 -100.556 177.44 -96.381 177.442 C-93.159 177.44 -89.936 177.419 -86.714 177.401 C-86.142 177.403 -86.142 177.403 -83.248 177.415 C-70.131 177.297 -59.487 173.279 -49.75 164.375 C-40.172 154.273 -37.696 142.251 -37.745 128.889 C-37.741 127.685 -37.737 126.481 -37.734 125.24 C-37.725 121.953 -37.725 118.666 -37.727 115.378 C-37.726 111.925 -37.711 108.472 -37.697 105.019 C-37.65 93.271 -37.626 81.523 -37.619 69.776 C-37.615 63.279 -37.597 56.782 -37.564 50.285 C-37.547 46.854 -37.538 43.424 -37.547 39.993 C-37.554 36.161 -37.537 32.33 -37.514 28.499 C-37.518 27.938 -37.518 27.938 -37.539 25.099 C-37.445 16.13 -35.786 8.657 -29.5 2 C-21.423 -5.637 -8.986 -6.488 0 0 Z " fill="#057BE6" transform="translate(1036,779)"/>
<path d="M0 0 C1.9 0.484 1.9 0.484 4 2 C4.752 4.822 5.234 7.374 5.605 10.25 C5.864 11.979 6.123 13.708 6.383 15.437 C6.448 15.891 6.448 15.891 6.778 18.19 C11.011 47.251 17.895 78.676 41.727 98.316 C50.903 105.112 60.132 109.593 71 113 C72.106 113.37 73.212 113.74 74.352 114.121 C80.553 116.141 86.599 117.55 93.047 118.504 C96.033 119.006 98.889 119.714 101.812 120.5 C107.788 122.073 113.718 122.808 119.848 123.473 C123 124 123 124 126 126 C125.67 127.32 125.34 128.64 125 130 C118.315 131.42 111.65 132.496 104.875 133.375 C95.702 134.631 86.905 136.491 78 139 C76.884 139.296 75.767 139.593 74.617 139.898 C51.209 146.498 34.828 159.97 23 181 C12.515 201.032 9.279 223.59 5.256 245.577 C5.104 246.394 4.953 247.212 4.797 248.055 C4.666 248.771 4.536 249.488 4.401 250.226 C4 252 4 252 3 254 C-0.875 253.125 -0.875 253.125 -2 252 C-2.453 248.96 -2.86 245.923 -3.25 242.875 C-7.625 210.864 -14.916 176.705 -42 156 C-49.48 151.004 -57.479 146.893 -66 144 C-66.584 143.801 -66.584 143.801 -69.539 142.793 C-83.861 138.053 -98.417 135.009 -113.364 133.039 C-117.525 132.472 -121.163 131.821 -125 130 C-125 128.68 -125 127.36 -125 126 C-117.86 124.35 -110.841 122.917 -103.562 122.062 C-97.099 121.254 -91.006 119.839 -84.746 118.055 C-82.274 117.359 -79.786 116.717 -77.285 116.133 C-64.15 113.018 -51.752 107.237 -41 99 C-40.633 98.721 -40.633 98.721 -38.777 97.309 C-13.538 76.572 -7.57 40.191 -3.293 9.745 C-3.15 8.757 -3.007 7.768 -2.859 6.75 C-2.74 5.879 -2.622 5.007 -2.499 4.109 C-2 2 -2 2 0 0 Z " fill="#057BE6" transform="translate(792,366)"/>
<path d="M0 0 C0.33 0.66 0.66 1.32 1 2 C0.082 4.141 0.082 4.141 -1.402 6.82 C-1.679 7.319 -1.679 7.319 -3.076 9.845 C-3.691 10.928 -4.305 12.01 -4.938 13.125 C-5.568 14.241 -6.198 15.358 -6.847 16.508 C-13.629 28.405 -21.185 39.76 -29 51 C-29.587 51.847 -30.174 52.695 -30.779 53.568 C-37.582 63.338 -44.803 72.535 -52.671 81.465 C-54.619 83.715 -56.461 86.046 -58.312 88.375 C-68.207 100.482 -79.377 111.484 -90.389 122.564 C-91.614 123.797 -92.837 125.031 -94.059 126.268 C-100.651 132.928 -107.276 139.255 -114.619 145.089 C-118.309 148.051 -121.707 151.292 -125.125 154.559 C-129.515 158.692 -134.207 162.347 -139 166 C-140.625 167.254 -142.25 168.508 -143.875 169.762 C-154.743 178.102 -165.705 186.248 -177 194 C-177.669 194.463 -178.339 194.925 -179.028 195.402 C-202.343 211.463 -226.669 225.413 -252 238 C-252.879 238.443 -253.758 238.886 -254.664 239.342 C-267.957 246.021 -281.745 251.392 -295.628 256.706 C-297.945 257.595 -300.259 258.493 -302.57 259.398 C-303.716 259.845 -304.862 260.293 -306.043 260.754 C-307.069 261.157 -308.096 261.56 -309.153 261.975 C-312.369 263.133 -315.544 263.935 -318.902 264.543 C-321 265 -321 265 -323.645 265.898 C-327.963 267.316 -332.331 268.38 -336.75 269.438 C-337.574 269.642 -338.397 269.846 -339.246 270.057 C-354.337 273.677 -368.9 275.501 -384.423 275.391 C-387.13 275.375 -389.836 275.391 -392.543 275.41 C-403.389 275.423 -413.43 274.496 -424 272 C-424.835 271.807 -425.669 271.613 -426.529 271.414 C-442.69 267.37 -458.572 258.269 -467.5 243.812 C-477.385 225.576 -477.192 206.101 -471.688 186.409 C-461.745 153.239 -441.539 123.813 -419.266 97.668 C-415.746 93.524 -412.376 89.262 -409 85 C-409 89.26 -411.433 91.515 -413.938 94.75 C-419.543 102.213 -424.428 109.87 -429 118 C-429.438 118.765 -429.877 119.53 -430.329 120.319 C-438.121 134.018 -443.563 147.893 -448 163 C-448.382 164.245 -448.763 165.49 -449.156 166.773 C-453.704 183.49 -451.478 200.552 -443.75 215.938 C-435.356 230.394 -421.011 238.223 -405.193 242.496 C-394.982 244.842 -384.883 245.372 -374.438 245.312 C-373.735 245.31 -373.033 245.308 -372.309 245.305 C-360.64 245.241 -349.417 244.518 -338 242 C-336.965 241.774 -335.93 241.549 -334.864 241.316 C-283.518 229.837 -234.544 206.68 -190 179 C-188.391 178.013 -186.781 177.026 -185.172 176.039 C-174.802 169.632 -164.879 162.74 -155.066 155.512 C-152.539 153.663 -149.987 151.851 -147.429 150.044 C-125.362 134.441 -104.455 117.093 -84.738 98.62 C-82.899 96.905 -81.046 95.206 -79.191 93.508 C-70.66 85.655 -62.588 77.488 -54.719 68.973 C-52.141 66.188 -49.5 63.488 -46.801 60.82 C-43.905 57.945 -41.226 55.013 -38.688 51.812 C-35.903 48.339 -33.08 44.92 -30.161 41.56 C-18.946 28.588 -8.995 14.588 0 0 Z " fill="#057BE6" transform="translate(789,629)"/>
<path d="M0 0 C0.66 0 1.32 0 2 0 C2.086 0.764 2.173 1.529 2.262 2.316 C3.808 14.102 6.014 28.306 16 36 C24.685 41.685 34.939 42.639 45 44 C45 44.66 45 45.32 45 46 C44.201 46.182 43.402 46.364 42.578 46.551 C40.267 47.08 37.959 47.62 35.652 48.168 C33.386 48.684 31.107 49.154 28.816 49.551 C20.578 51.126 15.353 54.518 10 61 C4.747 69.24 3.825 80.547 2 90 C1.34 90 0.68 90 0 90 C-0.219 88.768 -0.438 87.535 -0.664 86.266 C-5.228 61.89 -5.228 61.89 -14.438 55.438 C-21.062 51.522 -27.403 49.494 -34.938 48.312 C-35.717 48.183 -36.496 48.053 -37.299 47.92 C-39.198 47.605 -41.099 47.302 -43 47 C-43 46.01 -43 45.02 -43 44 C-42.421 43.915 -41.843 43.831 -41.247 43.744 C-16.303 39.954 -16.303 39.954 -9.156 30.582 C-4.272 22.095 -2.952 12.299 -1.385 2.759 C-1 1 -1 1 0 0 Z " fill="#057BE6" transform="translate(448,504)"/>
<path d="M0 0 C2.158 1.422 2.158 1.422 4 4 C4.605 7.18 4.557 10.325 4.533 13.554 C4.542 14.522 4.551 15.49 4.56 16.488 C4.582 19.689 4.575 22.889 4.566 26.09 C4.572 28.314 4.578 30.539 4.585 32.763 C4.596 37.426 4.591 42.089 4.576 46.752 C4.559 52.729 4.583 58.705 4.618 64.681 C4.64 69.275 4.638 73.869 4.63 78.463 C4.629 80.667 4.636 82.87 4.651 85.074 C4.668 88.155 4.654 91.235 4.631 94.316 C4.643 95.227 4.654 96.138 4.667 97.076 C4.599 101.54 4.444 103.421 1.648 107.066 C-1 109 -1 109 -4 109.625 C-8.15 108.76 -9.422 107.356 -12 104 C-12.722 100.801 -12.663 97.676 -12.615 94.408 C-12.618 93.928 -12.618 93.928 -12.632 91.499 C-12.644 88.331 -12.62 85.164 -12.594 81.996 C-12.592 79.793 -12.592 77.59 -12.594 75.387 C-12.592 70.773 -12.574 66.159 -12.542 61.545 C-12.502 55.628 -12.498 49.711 -12.505 43.793 C-12.509 39.246 -12.496 34.698 -12.479 30.151 C-12.472 27.969 -12.469 25.787 -12.47 23.604 C-12.468 20.557 -12.447 17.51 -12.42 14.463 C-12.423 13.559 -12.426 12.656 -12.429 11.725 C-12.346 5.653 -12.346 5.653 -10.661 2.471 C-7.468 -0.357 -4.084 -0.417 0 0 Z " fill="#057BE6" transform="translate(238,563)"/>
<path d="M0 0 C0.66 0 1.32 0 2 0 C2.063 0.277 2.063 0.277 2.38 1.677 C8.24 27.218 8.24 27.218 14.938 32.875 C23.05 37.888 33.721 39.375 43 41 C43 41.66 43 42.32 43 43 C42.705 43.045 42.705 43.045 41.215 43.272 C18.028 46.92 18.028 46.92 11.441 54.886 C7.223 60.852 5.502 66.439 4.125 73.562 C3.914 74.571 3.702 75.58 3.484 76.619 C2.972 79.076 2.478 81.536 2 84 C1.34 84 0.68 84 0 84 C-0.219 82.744 -0.438 81.489 -0.664 80.195 C-4.788 57.922 -4.788 57.922 -14.051 51.09 C-21.27 47.053 -28.807 44.519 -37.074 44.141 C-39 44 -39 44 -41 43 C-41 42.34 -41 41.68 -41 41 C-38.253 39.627 -35.681 39.626 -32.625 39.312 C-23.936 38.099 -15.765 35.281 -9.5 28.875 C-3.501 20.853 -2.037 9.568 0 0 Z " fill="#057BE6" transform="translate(642,365)"/>
<path d="M0 0 C3.7 1.4 3.7 1.4 5 4 C5.102 5.346 5.144 6.698 5.154 8.048 C5.163 8.895 5.171 9.742 5.18 10.614 C5.184 11.545 5.188 12.476 5.193 13.435 C5.201 14.414 5.209 15.393 5.218 16.402 C5.243 19.651 5.259 22.899 5.273 26.148 C5.279 27.256 5.284 28.363 5.29 29.504 C5.316 35.364 5.336 41.223 5.35 47.083 C5.367 53.145 5.412 59.207 5.462 65.269 C5.496 69.922 5.508 74.575 5.513 79.228 C5.52 81.463 5.535 83.698 5.559 85.933 C5.591 89.058 5.591 92.181 5.583 95.306 C5.6 96.233 5.616 97.16 5.633 98.115 C5.572 104.372 5.572 104.372 2.655 107.575 C-0.589 109.316 -2.37 109.618 -6 109 C-8.151 107.573 -8.151 107.573 -10 105 C-10.603 101.784 -10.546 98.602 -10.518 95.338 C-10.525 94.359 -10.532 93.379 -10.539 92.37 C-10.556 89.132 -10.545 85.895 -10.531 82.656 C-10.534 80.407 -10.538 78.158 -10.543 75.909 C-10.549 71.194 -10.54 66.48 -10.521 61.766 C-10.499 55.72 -10.512 49.674 -10.536 43.628 C-10.55 38.983 -10.546 34.339 -10.535 29.694 C-10.533 27.465 -10.536 25.235 -10.545 23.005 C-10.555 19.891 -10.54 16.777 -10.518 13.662 C-10.526 12.738 -10.534 11.815 -10.542 10.863 C-10.46 4.643 -10.46 4.643 -8.155 1.42 C-5.24 -0.501 -3.43 -0.429 0 0 Z " fill="#057BE6" transform="translate(1019,563)"/>
<path d="M0 0 C0.87 -0.007 1.741 -0.014 2.637 -0.021 C5.514 -0.039 8.39 -0.035 11.266 -0.03 C13.266 -0.034 15.266 -0.039 17.266 -0.045 C21.458 -0.054 25.651 -0.052 29.843 -0.042 C35.214 -0.031 40.585 -0.051 45.956 -0.08 C50.087 -0.098 54.218 -0.098 58.349 -0.092 C60.329 -0.092 62.309 -0.098 64.29 -0.111 C67.059 -0.125 69.828 -0.115 72.598 -0.098 C73.415 -0.107 74.232 -0.117 75.074 -0.127 C79.001 -0.076 80.948 0.149 84.376 2.252 C86.364 4.404 86.364 4.404 86.926 7.342 C86.211 11.234 85.263 12.698 82.364 15.404 C79.238 15.907 76.654 16.089 73.528 16.051 C73.082 16.055 73.082 16.055 70.826 16.078 C67.88 16.1 64.935 16.085 61.989 16.068 C59.941 16.071 57.894 16.076 55.846 16.083 C51.556 16.09 47.266 16.079 42.975 16.056 C37.473 16.027 31.972 16.044 26.471 16.074 C22.243 16.092 18.016 16.086 13.788 16.073 C11.759 16.07 9.731 16.074 7.702 16.086 C4.867 16.098 2.034 16.079 -0.801 16.051 C-1.22 16.056 -1.22 16.056 -3.345 16.082 C-7.296 16.01 -9.214 15.788 -12.189 13.09 C-14.177 9.402 -13.812 7.371 -12.636 3.404 C-9.141 -0.465 -4.858 -0.027 0 0 Z " fill="#057BE6" transform="translate(596.636474609375,969.595947265625)"/>
<path d="M0 0 C0.87 -0.007 1.74 -0.014 2.637 -0.021 C5.519 -0.039 8.4 -0.035 11.282 -0.03 C13.283 -0.034 15.285 -0.039 17.286 -0.045 C21.485 -0.054 25.683 -0.052 29.881 -0.042 C35.26 -0.031 40.639 -0.051 46.018 -0.08 C50.153 -0.098 54.288 -0.098 58.423 -0.092 C60.406 -0.092 62.389 -0.098 64.372 -0.111 C67.147 -0.125 69.921 -0.115 72.695 -0.098 C73.514 -0.107 74.333 -0.117 75.177 -0.127 C79.083 -0.076 81.066 0.157 84.491 2.217 C86.477 4.404 86.477 4.404 87.04 7.904 C86.477 11.404 86.477 11.404 84.995 13.589 C81.372 16.201 77.927 15.971 73.625 15.938 C73.179 15.942 73.179 15.942 70.919 15.964 C67.968 15.986 65.018 15.98 62.067 15.97 C60.017 15.976 57.967 15.982 55.918 15.989 C51.623 16 47.328 15.995 43.033 15.98 C37.523 15.963 32.013 15.987 26.502 16.022 C22.27 16.044 18.039 16.043 13.807 16.034 C11.774 16.033 9.742 16.04 7.71 16.055 C4.873 16.072 2.037 16.058 -0.801 16.035 C-1.222 16.041 -1.222 16.041 -3.356 16.071 C-5.696 16.032 -5.696 16.032 -9.523 15.404 C-12.29 12.286 -12.542 10.971 -12.398 6.779 C-10.565 -0.29 -6.587 -0.036 0 0 Z " fill="#057BE6" transform="translate(592.52294921875,257.595947265625)"/>
<path d="M0 0 C0.99 0.33 1.98 0.66 3 1 C3.759 3.873 4.352 6.646 4.875 9.562 C7.726 23.606 7.726 23.606 13.667 28.324 C18.934 31.773 23.838 33.219 30 34.312 C30.87 34.481 31.74 34.649 32.637 34.822 C34.755 35.23 36.877 35.617 39 36 C39 36.66 39 37.32 39 38 C38.456 38.1 37.912 38.2 37.351 38.304 C34.856 38.772 32.366 39.261 29.875 39.75 C29.019 39.907 28.163 40.065 27.281 40.227 C19.06 41.871 13.993 45.118 9 52 C6.528 57.094 5.244 61.872 4.312 67.438 C4.183 68.169 4.053 68.901 3.92 69.654 C3.606 71.435 3.302 73.217 3 75 C2.01 75 1.02 75 0 75 C-0.086 74.201 -0.173 73.402 -0.262 72.578 C-1.567 62.373 -3.497 51.876 -11.961 45.184 C-17.429 42.009 -22.774 40.419 -28.938 39.312 C-29.621 39.183 -30.305 39.053 -31.01 38.92 C-32.672 38.606 -34.336 38.302 -36 38 C-36 37.34 -36 36.68 -36 36 C-35.022 35.83 -34.043 35.66 -33.035 35.484 C-13.121 31.87 -13.121 31.87 -7 24 C-2.898 16.383 -0.901 8.555 0 0 Z " fill="#057BE6" transform="translate(860,653)"/>
</svg>
